# xmcd
#
# Track frame offsets:
#	150
#	15112
#	34770
#	49112
#	67587
#	80845
#	97157
#	117860
#	132292
#	146902
#	159795
#	181137
#	200110
#	212992
#	225402
#	241487
#	257367
#	274790
#	289370
#	304377
#
# Disc length: 4283 seconds
#
# Revision: 1
# Processed by: cddbd v1.5.2PL0 Copyright (c) Steve Scherf et al.
# Submitted via: EasyCDDAExtractor 6.2.0.3
#
DISCID=1d10b914
DTITLE=Jean Lapointe - Une voix, une histoire...
DYEAR=1999
DGENRE=Chanson
TTITLE0=Si on chantait ensemble
TTITLE1=Pleurire
TTITLE2=Mon oncle Edmond
TTITLE3=Aimer
TTITLE4=Rire aux larmes
TTITLE5=Tu jongles avec ma vie
TTITLE6=Chante-la ta chanson
TTITLE7=Le chanteur de charme
TTITLE8=Tu peux pleurer Pierrot
TTITLE9=Comme c'est une chanson d'amour
TTITLE10=Apres l'orage
TTITLE11=Comme en amour
TTITLE12=Mon soleil, mon amour
TTITLE13=C'est dans les chansons
TTITLE14=Au temps de la bonne chanson
TTITLE15=Les fleurs malades
TTITLE16=J'veux pas aller tout seul en haut
TTITLE17=Ma petite soeur des pauvres
TTITLE18=J'ai entendu ca... quelque part
TTITLE19=La scene, la vie, l'amour, la mort
EXTD=Musicor  -  Les Productions BYC Ltee  -  BYCD-116\n
EXTT0=
EXTT1=
EXTT2=
EXTT3=
EXTT4=
EXTT5=
EXTT6=
EXTT7=
EXTT8=
EXTT9=
EXTT10=
EXTT11=
EXTT12=
EXTT13=
EXTT14=
EXTT15=
EXTT16=
EXTT17=
EXTT18=
EXTT19=
PLAYORDER=
